<?xml version="1.0" encoding="UTF-8" standalone="no"?>
<!-- Generator: Adobe Illustrator 25.1.0, SVG Export Plug-In . SVG Version: 6.00 Build 0)  -->

<svg
   version="1.1"
   id="Layer_1"
   x="0px"
   y="0px"
   viewBox="0 0 708.7 293.1"
   style="enable-background:new 0 0 708.7 293.1;"
   xml:space="preserve"
   sodipodi:docname="608fbdebc1aeda57c1fa851f_Energy_Machines_Logo_black.svg"
   inkscape:version="1.1 (c68e22c387, 2021-05-23)"
   xmlns:inkscape="http://www.inkscape.org/namespaces/inkscape"
   xmlns:sodipodi="http://sodipodi.sourceforge.net/DTD/sodipodi-0.dtd"
   xmlns="http://www.w3.org/2000/svg"
   xmlns:svg="http://www.w3.org/2000/svg"><defs
   id="defs41" /><sodipodi:namedview
   id="namedview39"
   pagecolor="#ffffff"
   bordercolor="#666666"
   borderopacity="1.0"
   inkscape:pageshadow="2"
   inkscape:pageopacity="0.0"
   inkscape:pagecheckerboard="0"
   showgrid="false"
   inkscape:zoom="2.0474107"
   inkscape:cx="354.1058"
   inkscape:cy="146.52654"
   inkscape:window-width="3840"
   inkscape:window-height="2066"
   inkscape:window-x="-11"
   inkscape:window-y="-11"
   inkscape:window-maximized="1"
   inkscape:current-layer="Layer_1" />
<style
   type="text/css"
   id="style2">
	.st0{fill:#FFFFFF;}
</style>
<g
   id="g36"
   style="fill:#000000">
	<polygon
   class="st0"
   points="162.4,33.3 162.4,0.8 0,0.8 0,293.1 32.5,293.1 32.5,163.2 64.9,163.2 64.9,293.1 97.4,293.1    97.4,163.2 129.9,163.2 129.9,293.1 162.4,293.1 162.4,130.7 32.5,130.7 32.5,98.2 162.4,98.2 162.4,65.8 32.5,65.8 32.5,33.3  "
   id="polygon4"
   style="fill:#000000" />
	<g
   id="g34"
   style="fill:#000000">
		<path
   class="st0"
   d="M226.8,65.8V0.8h43.5v9.4h-31.9v17.9h30v9.3h-30v19h31.9v9.4H226.8z"
   id="path6"
   style="fill:#000000" />
		<path
   class="st0"
   d="M326.8,0.8H338v64.9H329l-34.8-45.3v45.3h-11.1V0.8h8.8L326.8,46V0.8z"
   id="path8"
   style="fill:#000000" />
		<path
   class="st0"
   d="M354,65.8V0.8h43.5v9.4h-31.9v17.9h30v9.3h-30v19h31.9v9.4H354z"
   id="path10"
   style="fill:#000000" />
		<path
   class="st0"
   d="M528.4,30.7v31.1c-2.9,1.5-6.5,2.6-10.7,3.5c-4.2,0.9-8.5,1.3-12.8,1.3c-6.7,0-12.5-1.3-17.4-4    c-4.9-2.7-8.7-6.5-11.3-11.5c-2.6-5-3.9-10.9-3.9-17.8c0-6.8,1.3-12.7,3.9-17.7c2.6-5,6.3-8.8,11.1-11.5c4.8-2.7,10.5-4,17-4    c4.5,0,8.8,0.7,12.8,2c4,1.3,7.3,3.2,9.9,5.7l-4,8.6c-3-2.3-6-4-8.9-5c-2.9-1-6.1-1.5-9.6-1.5c-6.7,0-11.7,2-15.1,5.9    c-3.4,4-5.1,9.8-5.1,17.6c0,16,7,23.9,21,23.9c4.2,0,8.3-0.6,12.5-1.7V39.1h-14v-8.5H528.4z"
   id="path12"
   style="fill:#000000" />
		<path
   class="st0"
   d="M593.8,0.8l-26.3,35v29.9h-11.9V35.8l-26.2-35h13.4l18.8,25.5l18.9-25.5H593.8z"
   id="path14"
   style="fill:#000000" />
		<path
   class="st0"
   d="M280.9,98.3h9.3v64.9h-10.5v-42.9l-17.1,32.4h-7.9l-17.2-32l0.1,42.5H227V98.3h9.4l22.3,42.5L280.9,98.3z"
   id="path16"
   style="fill:#000000" />
		<path
   class="st0"
   d="M384.9,159.9c-4.8-2.7-8.4-6.6-11-11.6c-2.5-5-3.8-10.9-3.8-17.6c0-6.7,1.3-12.5,3.8-17.5    c2.5-5,6.2-8.9,11-11.6c4.8-2.7,10.3-4.1,16.7-4.1c4.4,0,8.5,0.7,12.3,2c3.9,1.4,7.1,3.3,9.8,5.7l-4,8.7c-2.9-2.3-5.9-4-8.7-5.1    c-2.9-1.1-6-1.6-9.2-1.6c-6.3,0-11.1,2-14.5,6.1c-3.4,4.1-5.1,9.9-5.1,17.5c0,7.7,1.7,13.5,5.1,17.6c3.4,4.1,8.2,6.1,14.5,6.1    c3.3,0,6.3-0.5,9.2-1.6c2.9-1.1,5.8-2.8,8.7-5.1l4,8.7c-2.6,2.5-5.9,4.4-9.8,5.7c-3.9,1.4-8,2-12.3,2    C395.2,164,389.6,162.7,384.9,159.9z"
   id="path18"
   style="fill:#000000" />
		<path
   class="st0"
   d="M479,98.3h11.6v64.9H479V135h-33.2v28.2H434V98.3h11.7v27.2H479V98.3z"
   id="path20"
   style="fill:#000000" />
		<path
   class="st0"
   d="M506.6,163.2V98.3h11.9v64.9H506.6z"
   id="path22"
   style="fill:#000000" />
		<path
   class="st0"
   d="M578.2,98.3h11.1v64.9h-8.9l-34.8-45.3v45.3h-11.1V98.3h8.8l34.8,45.2V98.3z"
   id="path24"
   style="fill:#000000" />
		<path
   class="st0"
   d="M605.5,163.2V98.3h43.5v9.4h-31.9v17.9h30v9.3h-30v19h31.9v9.4H605.5z"
   id="path26"
   style="fill:#000000" />
		<path
   class="st0"
   d="M668.9,162c-4.4-1.3-8-3.3-11.1-5.7l4-8.7c3.1,2.4,6.4,4.1,9.9,5.2c3.5,1.1,7.2,1.7,11.3,1.7    c4.5,0,7.9-0.8,10.4-2.3c2.4-1.6,3.6-3.8,3.6-6.6c0-2.5-1.1-4.3-3.4-5.6c-2.2-1.3-6-2.5-11.2-3.7c-5.4-1.2-9.8-2.5-13.2-4.1    c-3.4-1.5-5.9-3.5-7.6-5.9c-1.7-2.4-2.6-5.4-2.6-9.1c0-3.8,1-7.2,3.1-10.2c2.1-3,5-5.4,8.8-7c3.8-1.7,8.2-2.5,13.2-2.5    c4.5,0,8.9,0.7,13,2.1c4.1,1.4,7.5,3.3,10.1,5.7l-4,8.7c-5.8-4.6-12.2-6.9-19.2-6.9c-4.2,0-7.5,0.8-9.9,2.5c-2.4,1.7-3.6,4-3.6,7    c0,2.5,1.1,4.5,3.2,5.8c2.1,1.4,5.8,2.6,11,3.8c5.5,1.2,9.9,2.6,13.3,4.1c3.4,1.5,6,3.4,7.8,5.8c1.8,2.3,2.7,5.3,2.7,8.8    c0,3.9-1,7.3-3.1,10.2c-2.1,2.9-5,5.2-8.9,6.7c-3.9,1.6-8.5,2.3-13.8,2.3C677.9,164,673.2,163.3,668.9,162z"
   id="path28"
   style="fill:#000000" />
		<path
   class="st0"
   d="M338.4,98.3h-9.7l-29.4,64.9h12l6.5-15.2h31.6l6.5,15.2h11.8L338.4,98.3z M321.8,138.8l11.8-27.6l11.9,27.6    H321.8z"
   id="path30"
   style="fill:#000000" />
		<path
   class="st0"
   d="M449.4,37.6c3.3-1.2,6-2.9,8.1-5.3c2.8-3.2,4.2-7.3,4.2-12.3c0-6.2-1.9-10.9-5.8-14.2    c-3.8-3.3-9.4-4.9-16.8-4.9h-28.7v64.9h11.7l0-26h15.9l13.9,26h12.9L449.4,37.6z M447.3,28c-2.1,1.7-5.4,2.5-9.9,2.5H422l0-20.5    h15.5c4.5,0,7.8,0.8,9.9,2.4c2.1,1.6,3.1,4.2,3.1,7.8C450.4,23.8,449.4,26.4,447.3,28z"
   id="path32"
   style="fill:#000000" />
	</g>
</g>
</svg>
